<svg width="32" height="25" viewBox="0 0 32 25" fill="none" xmlns="http://www.w3.org/2000/svg">
<path d="M31.25 10L13.356 24.3152C12.8019 24.7585 12.1134 25 11.4038 25H1.78174C1.19094 25 0.929967 24.256 1.3913 23.887L23.4413 6.24695C26.5883 3.72939 31.25 5.96993 31.25 10Z" fill="#111111"/>
<path d="M24.8033 19.8422C23.3021 18.6413 23.3021 16.358 24.8033 15.157L31.25 9.99963V23.6992C31.25 24.2233 30.6438 24.5147 30.2346 24.1873L24.8033 19.8422Z" fill="#111111"/>
<path d="M24.75 19.8123C23.4052 18.7364 23.6552 16.7631 25 15.6873L28.6188 12.7563C28.7117 12.6811 28.7341 12.5486 28.6712 12.4471C28.5855 12.3089 28.3984 12.2767 28.2715 12.3782L24.5634 15.3447L24.5285 15.373C23.0623 16.5812 23.0739 18.8382 24.5634 20.0298L24.75 19.8123Z" fill="white"/>
</svg>
